REM DIRINDEX 1\2,1\3,1\4,1\5
REM DIRNAME "folder01","folder02","folder03","folder04","folder05"
TITLE ""
FILE "P1Q_t_0169-0178.mp3" MP3
  TRACK 01 AUDIO
    TITLE "3:cjc173_1419"
    INDEX 01 00:00:00
  TRACK 02 AUDIO
    TITLE "0:"
    INDEX 01 00:01:10
  TRACK 03 AUDIO
    TITLE "4:cjc173_1420"
    INDEX 01 00:01:31
  TRACK 04 AUDIO
    TITLE "0:"
    INDEX 01 00:03:30
  TRACK 05 AUDIO
    TITLE "5:cjc173_1421"
    INDEX 01 00:03:48
  TRACK 06 AUDIO
    TITLE "0:"
    INDEX 01 00:08:39
  TRACK 07 AUDIO
    TITLE "3:cjc173_1422"
    INDEX 01 00:09:11
  TRACK 08 AUDIO
    TITLE "0:"
    INDEX 01 00:10:44
  TRACK 09 AUDIO
    TITLE "4:cjc173_1423"
    INDEX 01 00:10:64
  TRACK 10 AUDIO
    TITLE "0:"
    INDEX 01 00:12:12
  TRACK 11 AUDIO
    TITLE "5:cjc173_1424"
    INDEX 01 00:12:31
  TRACK 12 AUDIO
    TITLE "0:"
    INDEX 01 00:17:17
  TRACK 13 AUDIO
    TITLE "3:cjc173_1425"
    INDEX 01 00:17:64
  TRACK 14 AUDIO
    TITLE "0:"
    INDEX 01 00:18:71
  TRACK 15 AUDIO
    TITLE "4:cjc173_1426"
    INDEX 01 00:19:17
  TRACK 16 AUDIO
    TITLE "0:"
    INDEX 01 00:23:15
  TRACK 17 AUDIO
    TITLE "5:cjc173_1427"
    INDEX 01 00:23:35
  TRACK 18 AUDIO
    TITLE "0:"
    INDEX 01 00:28:52
  TRACK 19 AUDIO
    TITLE "3:cjc173_1428"
    INDEX 01 00:29:26
  TRACK 20 AUDIO
    TITLE "0:"
    INDEX 01 00:30:68
  TRACK 21 AUDIO
    TITLE "4:cjc173_1429"
    INDEX 01 00:31:13
  TRACK 22 AUDIO
    TITLE "0:"
    INDEX 01 00:32:26
  TRACK 23 AUDIO
    TITLE "5:cjc173_1430"
    INDEX 01 00:32:48
  TRACK 24 AUDIO
    TITLE "0:"
    INDEX 01 00:39:53
  TRACK 25 AUDIO
    TITLE "3:cjc173_1431"
    INDEX 01 00:40:25
  TRACK 26 AUDIO
    TITLE "0:"
    INDEX 01 00:41:33
  TRACK 27 AUDIO
    TITLE "4:cjc173_1432"
    INDEX 01 00:41:54
  TRACK 28 AUDIO
    TITLE "0:"
    INDEX 01 00:43:73
  TRACK 29 AUDIO
    TITLE "5:cjc173_1433"
    INDEX 01 00:44:15
  TRACK 30 AUDIO
    TITLE "0:"
    INDEX 01 00:48:17
  TRACK 31 AUDIO
    TITLE "3:cjc173_1434"
    INDEX 01 00:48:64
  TRACK 32 AUDIO
    TITLE "0:"
    INDEX 01 00:50:06
  TRACK 33 AUDIO
    TITLE "4:cjc173_1435"
    INDEX 01 00:50:26
  TRACK 34 AUDIO
    TITLE "0:"
    INDEX 01 00:52:29
  TRACK 35 AUDIO
    TITLE "5:cjc173_1436"
    INDEX 01 00:52:48
  TRACK 36 AUDIO
    TITLE "0:"
    INDEX 01 00:58:29
  TRACK 37 AUDIO
    TITLE "3:cjc173_1437"
    INDEX 01 00:59:09
  TRACK 38 AUDIO
    TITLE "0:"
    INDEX 01 01:00:24
  TRACK 39 AUDIO
    TITLE "4:cjc173_1438"
    INDEX 01 01:00:46
  TRACK 40 AUDIO
    TITLE "0:"
    INDEX 01 01:03:17
  TRACK 41 AUDIO
    TITLE "5:cjc173_1439"
    INDEX 01 01:03:36
  TRACK 42 AUDIO
    TITLE "0:"
    INDEX 01 01:09:04
  TRACK 43 AUDIO
    TITLE "3:cjc173_1440"
    INDEX 01 01:09:51
  TRACK 44 AUDIO
    TITLE "0:"
    INDEX 01 01:10:62
  TRACK 45 AUDIO
    TITLE "4:cjc173_1441"
    INDEX 01 01:11:08
  TRACK 46 AUDIO
    TITLE "0:"
    INDEX 01 01:13:27
  TRACK 47 AUDIO
    TITLE "5:cjc173_1442"
    INDEX 01 01:13:46
  TRACK 48 AUDIO
    TITLE "0:"
    INDEX 01 01:19:08
  TRACK 49 AUDIO
    TITLE "3:cjc173_1443"
    INDEX 01 01:19:53
  TRACK 50 AUDIO
    TITLE "0:"
    INDEX 01 01:20:66
  TRACK 51 AUDIO
    TITLE "4:cjc173_1444"
    INDEX 01 01:21:13
  TRACK 52 AUDIO
    TITLE "0:"
    INDEX 01 01:24:50
  TRACK 53 AUDIO
    TITLE "5:cjc173_1445"
    INDEX 01 01:24:70
  TRACK 54 AUDIO
    TITLE "0:"
    INDEX 01 01:28:50
  TRACK 55 AUDIO
    TITLE "3:cjc173_1446"
    INDEX 01 01:29:22
  TRACK 56 AUDIO
    TITLE "0:"
    INDEX 01 01:30:47
  TRACK 57 AUDIO
    TITLE "4:cjc173_1447"
    INDEX 01 01:30:70
  TRACK 58 AUDIO
    TITLE "0:"
    INDEX 01 01:33:10
  TRACK 59 AUDIO
    TITLE "5:cjc173_1448"
    INDEX 01 01:33:30
  TRACK 60 AUDIO
    TITLE "0:"
    INDEX 01 01:39:05
